<svg width="48" height="49" viewBox="0 0 48 49" fill="none" xmlns="http://www.w3.org/2000/svg">
<path d="M24 48.5C37.2548 48.5 48 37.7548 48 24.5C48 11.2452 37.2548 0.5 24 0.5C10.7452 0.5 0 11.2452 0 24.5C0 37.7548 10.7452 48.5 24 48.5Z" fill="#DFE6FB"/>
<path d="M32.574 15.698C32.4862 15.6219 32.3831 15.5655 32.2717 15.5327C32.1602 15.4999 32.043 15.4915 31.928 15.508L20.581 17.13C20.3877 17.1575 20.2108 17.2539 20.0829 17.4014C19.955 17.549 19.8847 17.7377 19.885 17.933V27.434C19.3897 27.1452 18.8264 26.9933 18.253 26.994C17.3906 26.9951 16.5638 27.3381 15.954 27.948C15.3441 28.5578 15.0011 29.3846 15 30.247C15.0011 31.1094 15.3441 31.9362 15.954 32.5461C16.5638 33.1559 17.3906 33.4989 18.253 33.5C19.1154 33.4989 19.9422 33.1559 20.552 32.5461C21.1619 31.9362 21.5049 31.1094 21.506 30.247V21.877L31.232 20.487V25.814C30.7371 25.525 30.1742 25.3728 29.601 25.373C28.7384 25.3738 27.9113 25.7167 27.3013 26.3266C26.6913 26.9365 26.3481 27.7634 26.347 28.626C26.3481 29.4886 26.6913 30.3155 27.3013 30.9254C27.9113 31.5353 28.7384 31.8782 29.601 31.879C30.4634 31.8779 31.2902 31.5349 31.9 30.9251C32.5099 30.3152 32.8529 29.4884 32.854 28.626V16.31C32.8541 16.1937 32.8291 16.0788 32.7808 15.973C32.7325 15.8672 32.6619 15.7731 32.574 15.697V15.698Z" fill="#717FA6"/>
</svg>
