<svg width="482" height="197" viewBox="0 0 482 197" fill="none" xmlns="http://www.w3.org/2000/svg">
<g clip-path="url(#clip0_1_53)">
<mask id="mask0_1_53" style="mask-type:alpha" maskUnits="userSpaceOnUse" x="0" y="0" width="482" height="197">
<path d="M0 0H482V197H0V0Z" fill="white"/>
</mask>
<g mask="url(#mask0_1_53)">
<path d="M0 0H482V197H0V0Z" fill="#382AE1"/>
<path d="M234.372 41.1909V53.1614H236.177V56.4056H242.928V126.236L256.593 132.234V120.691H259.856V133.716L263.052 135.097V236.201L34.1685 238.383V173.698H41.6802V111.502H44.4094V102.95H47.6709V111.502H62.8271L62.8261 111.515V111.69C62.8153 113.545 62.7318 128.736 62.7254 139.919V142.622C62.7286 147.993 62.7554 151.908 62.8261 151.975C62.8968 152.042 63.6658 152.068 64.6973 152.071H65.2328C67.5379 152.064 70.6645 151.975 70.6645 151.975V184.604H76.8619V68.4118H84.7656V62.004H88.0272V68.4127H112.782V74.1392H122.197V62.0058H125.458V74.1392H130.079V95.425H141.168V133.598H154.214V168.245H161.052V96.2336H169.664V85.2079H172.924V96.2327H196.614V56.4333H203.528V53.1614H231.109V41.1909H234.372ZM16.9686 132.07V135.787H20.394L27.2866 238.101H-8.56885L-1.66554 135.788H1.03045V132.071H16.9686V132.07Z" fill="#1E1FCD"/>
<path d="M452.879 73.4273V85.3977H454.683V88.6419H461.435V158.472L475.1 164.471V152.928H478.362V165.952L481.559 167.334V268.438L252.675 270.619V205.934H260.187V143.738H262.916V135.187H266.177V143.738H281.334L281.333 143.751V143.926C281.322 145.782 281.238 160.972 281.232 172.156V174.858C281.235 180.229 281.262 184.144 281.333 184.211C281.403 184.278 282.172 184.304 283.204 184.308H283.739C286.044 184.301 289.171 184.211 289.171 184.211V216.841H295.368V100.648H303.272V94.2403H306.534V100.648H331.288V106.375H340.703V94.2412H343.965V106.375H348.586V127.66H359.675V165.834H372.721V200.481H379.559V128.469H388.171V117.444H391.431V128.469H415.121V88.6697H422.035V85.3977H449.616V73.4273H452.879ZM235.475 164.306V168.023H238.901L245.793 270.337H209.938L216.841 168.023H219.537V164.306H235.475Z" fill="#1E1FCD"/>
<path d="M240.725 24.9778C240.567 23.0821 230.415 28.5972 230.415 28.5972C230.415 28.5972 239.015 23.0821 238.277 21.704C237.54 20.325 227.851 26.3568 227.851 26.3568C227.851 26.3568 236.695 20.6698 235.329 19.4555C233.964 18.2404 224.519 24.6331 224.519 24.6331C224.519 24.6331 234.15 17.559 230.474 17.387C228.824 17.3136 215.861 24.6743 201.818 33.5124C205.749 37.6154 209.68 41.5787 213.925 45.4112C218.426 41.5213 221.974 38.4275 222.456 37.9109C223.9 36.3599 238.248 37.3942 238.307 35.4985C238.366 33.6028 228.854 32.7405 228.854 32.7405C228.854 32.7405 240.882 26.8735 240.725 24.9778Z" fill="white"/>
<path d="M213.865 45.7801C213.805 45.781 213.745 45.7712 213.689 45.7515C213.633 45.7317 213.583 45.7024 213.542 45.6655C209.767 42.252 205.916 38.4687 201.404 33.7416C201.367 33.7029 201.339 33.6583 201.322 33.6105C201.305 33.5627 201.3 33.5126 201.307 33.4631C201.326 33.363 201.389 33.2724 201.483 33.2088C211.871 26.6434 228.087 17.0181 230.406 17.0181C230.925 16.9769 231.415 17.2276 231.605 17.6333C231.919 18.372 230.819 19.734 229.374 21.105C232.067 19.6033 234.76 18.4455 235.605 19.2012C235.804 19.3803 235.897 19.623 235.86 19.8657C235.791 20.5381 234.877 21.507 233.659 22.5816C235.506 21.6709 237.236 20.9814 238.032 21.1542C238.159 21.1751 238.279 21.2208 238.382 21.2877C238.484 21.3546 238.566 21.4408 238.621 21.5393C239.103 22.4016 237.255 24.1576 235.103 25.807C237.413 24.7727 239.752 23.9355 240.646 24.3134C240.791 24.3724 240.914 24.463 241.003 24.5758C241.091 24.6885 241.141 24.819 241.148 24.9536C241.294 26.7266 233.482 30.8287 230.13 32.5023C233.197 32.856 238.71 33.7336 238.661 35.5066C238.661 36.7951 235.408 37.0082 230.151 37.2375C227.084 37.3772 223.271 37.55 222.72 38.1401C222.17 38.7311 219.477 41.0781 214.161 45.6736C214.08 45.7367 213.976 45.7746 213.865 45.781V45.7801ZM202.397 33.5778C206.633 38.0094 210.259 41.6118 213.876 44.8605C220.107 39.4788 221.738 37.9843 222.042 37.6807C222.789 36.8605 225.601 36.6957 230.13 36.4907C232.804 36.368 237.777 36.1468 237.796 35.4895C237.796 34.5296 233.119 33.5124 228.745 33.1103C228.652 33.1014 228.565 33.0679 228.496 33.0148C228.427 32.9617 228.38 32.8917 228.362 32.8148C228.342 32.7381 228.351 32.6581 228.388 32.5858C228.424 32.5136 228.487 32.4528 228.568 32.4119C234.395 29.5894 240.36 26.0452 240.282 25.0271C239.673 24.6742 235.269 26.4714 230.662 28.9742C230.564 29.0158 230.452 29.0265 230.346 29.0042C230.24 28.982 230.147 28.9283 230.085 28.8532C230.022 28.7781 229.995 28.6866 230.007 28.5958C230.019 28.5049 230.07 28.4208 230.151 28.359C234.583 25.5196 238.18 22.5081 237.846 21.9171C237.187 21.6458 232.705 23.837 228.106 26.7168C228.011 26.7718 227.894 26.7941 227.779 26.7791C227.665 26.7641 227.562 26.7129 227.491 26.6362C227.42 26.5594 227.388 26.463 227.4 26.3667C227.412 26.2704 227.467 26.1816 227.555 26.1186C230.377 24.2973 234.887 20.9895 235.005 19.8657V19.7761C234.454 19.2657 229.57 21.7533 224.775 24.9859C224.681 25.0448 224.564 25.0717 224.447 25.061C224.33 25.0504 224.223 25.003 224.146 24.9286C224.105 24.8949 224.072 24.8548 224.05 24.8104C224.027 24.766 224.016 24.7184 224.016 24.6702C224.016 24.6221 224.027 24.5744 224.05 24.53C224.072 24.4857 224.105 24.4455 224.146 24.4119C227.576 21.884 231.084 18.6675 230.77 17.9377C230.77 17.8634 230.544 17.8303 230.367 17.8222C229.021 17.7649 218.003 23.7797 202.397 33.5778Z" fill="#231F20"/>
<path d="M163.942 61.6753C161.052 69.2992 178.506 104.511 178.506 104.511L200.127 82.1991C199.645 81.5096 188.717 65.6395 188.717 65.6395C188.717 65.6395 204.845 53.1748 213.837 45.4112C209.611 41.5786 205.621 37.5822 201.729 33.5124C184.472 44.3769 165.534 57.4748 163.942 61.6753Z" fill="#231F20"/>
<path d="M178.506 104.873H178.399C178.324 104.864 178.254 104.839 178.195 104.8C178.136 104.761 178.091 104.709 178.064 104.651C177.346 103.215 160.581 69.2419 163.49 61.5768C165.131 57.2518 184.128 44.0975 201.453 33.233C201.543 33.1753 201.655 33.149 201.767 33.1598C201.879 33.1705 201.982 33.2173 202.053 33.2903C206.544 38.0004 210.387 41.7756 214.152 45.173C214.301 45.3136 214.301 45.5249 214.152 45.6655C205.866 52.8211 191.351 64.0966 189.258 65.7129C193.007 71.1513 196.758 76.5891 200.51 82.0263C200.606 82.1517 200.606 82.3128 200.51 82.4373L178.889 104.741C178.844 104.788 178.785 104.825 178.718 104.848C178.651 104.871 178.578 104.88 178.506 104.873ZM201.679 34.0129C185.366 44.2865 165.927 57.6467 164.335 61.7819C161.722 68.6751 176.394 99.2593 178.605 103.806L199.617 82.166L188.363 65.8195C188.317 65.7465 188.301 65.6628 188.317 65.5813C188.333 65.4997 188.38 65.4248 188.452 65.3682C188.609 65.2455 204.334 53.0592 213.276 45.4031C209.66 42.1204 205.965 38.4938 201.679 34.0129Z" fill="#231F20"/>
<path d="M215.34 98.0782C217.109 108.303 225.256 116.952 234.101 124.854C239.398 129.548 245.894 134.324 253.649 134.021C257.353 133.865 260.832 132.534 264.065 131.026C272.16 127.273 279.402 122.359 285.46 116.508C284.274 116.512 283.129 116.149 282.245 115.488C281.361 114.828 280.801 113.917 280.674 112.931C282.255 113.548 284.008 113.789 285.742 113.627C287.476 113.465 289.123 112.906 290.501 112.012C296.516 108.024 293.597 104.503 288.998 101.533C281.808 96.9053 276.088 90.8723 272.341 83.9641C266.601 73.2455 255.201 58.9272 238.317 62.1929C222.082 65.327 217.679 77.4891 215.438 89.5517C214.895 92.3738 214.862 95.248 215.34 98.0782Z" fill="white"/>
<path d="M252.921 134.406C245.305 134.406 238.976 129.729 233.776 125.108C225.472 117.724 216.735 108.754 214.898 98.1356C214.4 95.2549 214.423 92.3281 214.967 89.4532C215.95 84.2838 217.512 77.661 221.217 72.2945C222.968 69.622 225.391 67.2984 228.32 65.4836C231.248 63.6689 234.612 62.406 238.18 61.7819C245.884 60.2972 260.606 61.1748 272.723 83.7662C276.432 90.6232 282.107 96.6099 289.244 101.196C292.683 103.42 294.295 105.374 294.315 107.359C294.315 109 293.126 110.69 290.748 112.283C289.421 113.142 287.855 113.707 286.197 113.923C284.538 114.14 282.841 114.002 281.264 113.522C281.544 114.267 282.099 114.918 282.849 115.383C283.599 115.847 284.507 116.1 285.44 116.106C285.528 116.103 285.616 116.121 285.691 116.159C285.766 116.198 285.826 116.254 285.863 116.32C285.901 116.386 285.915 116.459 285.903 116.53C285.89 116.602 285.852 116.669 285.794 116.723C279.72 122.634 272.436 127.594 264.282 131.37C261.245 132.782 257.598 134.25 253.667 134.406H252.92H252.921ZM242.965 62.0774C241.424 62.0774 239.888 62.2242 238.385 62.5126C222.437 65.5983 218.131 77.3324 215.851 89.5929C215.323 92.3916 215.3 95.2407 215.783 98.0451C217.581 108.466 226.22 117.33 234.454 124.617C239.684 129.261 246.042 133.972 253.649 133.643C257.392 133.495 260.92 132.067 263.869 130.697C271.651 127.083 278.631 122.378 284.506 116.788C283.386 116.618 282.362 116.15 281.586 115.454C280.81 114.757 280.325 113.869 280.203 112.923C280.195 112.857 280.21 112.791 280.244 112.732C280.279 112.672 280.332 112.622 280.399 112.586C280.465 112.552 280.542 112.534 280.62 112.534C280.698 112.534 280.774 112.552 280.841 112.586C282.342 113.17 284.005 113.397 285.65 113.243C287.295 113.09 288.857 112.562 290.167 111.716C292.32 110.281 293.41 108.828 293.391 107.391C293.391 105.685 291.838 103.863 288.674 101.819C281.425 97.1579 275.66 91.0761 271.888 84.1109C262.168 65.9261 250.827 62.0774 242.965 62.0774Z" fill="#231F20"/>
<path d="M327.6 130.172C326.913 132.445 315.621 149.284 315.621 149.284L330.363 155.939C330.363 155.939 343.698 137.278 344.838 136.039C345.979 134.8 355.649 124.042 356.966 120.268C358.283 116.492 348.986 113.702 345.173 114.006C341.36 114.31 328.289 127.899 327.6 130.172Z" fill="white"/>
<path d="M330.342 156.317C330.269 156.317 330.198 156.3 330.136 156.268L315.395 149.613C315.342 149.589 315.295 149.556 315.258 149.517C315.22 149.477 315.194 149.431 315.179 149.382C315.155 149.337 315.142 149.288 315.142 149.239C315.142 149.19 315.155 149.141 315.179 149.096C319.11 143.293 326.569 131.862 327.11 130.082C327.837 127.669 341.056 113.924 345.044 113.67C347.944 113.464 353.988 114.932 356.415 117.386C356.859 117.785 357.175 118.271 357.333 118.799C357.491 119.327 357.486 119.88 357.319 120.406C355.914 124.509 345.221 136.195 345.124 136.31C344.003 137.517 330.804 156.004 330.667 156.169C330.63 156.213 330.581 156.249 330.525 156.274C330.469 156.3 330.406 156.314 330.342 156.317ZM316.24 149.128L330.186 155.438C331.983 152.919 343.393 136.974 344.464 135.81C346.715 133.347 355.335 123.599 356.514 120.16C356.642 119.75 356.642 119.32 356.512 118.91C356.383 118.5 356.129 118.126 355.776 117.822C353.565 115.582 347.817 114.187 345.183 114.375C341.586 114.638 328.633 128.326 328.033 130.262C327.384 132.404 317.871 146.691 316.24 149.128Z" fill="#231F20"/>
<path d="M323.365 137.45L310.196 150.86L281.794 134.965L269.696 153.773C269.696 153.773 309.921 178.99 315.621 176.577C321.32 174.165 338.588 144.409 338.588 144.409L323.365 137.451V137.45Z" fill="#231F20"/>
<path d="M314.707 177.086C306.413 177.086 273.363 156.522 269.432 154.06C269.351 154.007 269.295 153.932 269.273 153.848C269.252 153.764 269.266 153.676 269.314 153.6L281.411 134.792C281.439 134.748 281.478 134.709 281.526 134.678C281.573 134.647 281.627 134.624 281.686 134.612C281.744 134.6 281.805 134.598 281.864 134.606C281.923 134.614 281.98 134.633 282.03 134.66L310.088 150.375L323.012 137.245C323.074 137.179 323.163 137.134 323.262 137.117C323.361 137.101 323.464 137.115 323.552 137.156L338.824 144.114C338.919 144.16 338.99 144.235 339.023 144.323C339.055 144.411 339.047 144.506 339 144.59C338.293 145.813 321.576 174.485 315.798 176.922C315.455 177.048 315.08 177.105 314.707 177.086ZM270.247 153.666C281.608 160.765 310.982 178.136 315.454 176.258C320.652 174.049 336.22 147.733 338.058 144.566L323.473 137.91L310.53 151.089C310.465 151.161 310.37 151.209 310.263 151.223C310.157 151.237 310.048 151.216 309.96 151.163L281.942 135.481L270.247 153.666ZM335.424 104.659L335.295 137.45H353.88V104.659H335.424Z" fill="#231F20"/>
<path d="M353.88 137.844H335.296C335.239 137.844 335.182 137.835 335.129 137.816C335.076 137.798 335.027 137.77 334.987 137.736C334.947 137.702 334.915 137.661 334.894 137.616C334.873 137.571 334.862 137.524 334.863 137.476L334.981 104.651C334.984 104.554 335.032 104.463 335.115 104.395C335.197 104.328 335.308 104.29 335.424 104.29H353.879C354.119 104.29 354.312 104.451 354.312 104.651V137.476C354.313 137.524 354.303 137.571 354.282 137.616C354.261 137.661 354.229 137.702 354.189 137.736C354.148 137.77 354.1 137.798 354.047 137.816C353.994 137.835 353.937 137.844 353.88 137.844ZM335.738 137.123H353.428V105.021H335.836L335.738 137.123Z" fill="#231F20"/>
<path d="M337.31 107.556L337.213 133.323H351.973V107.556H337.31Z" fill="white"/>
<path d="M351.973 133.692H337.232C337.173 133.693 337.115 133.684 337.061 133.666C337.007 133.648 336.958 133.62 336.917 133.586C336.874 133.55 336.841 133.508 336.819 133.462C336.797 133.415 336.787 133.365 336.789 133.315L336.878 107.556C336.881 107.457 336.93 107.363 337.014 107.294C337.099 107.225 337.212 107.187 337.33 107.187H351.993C352.237 107.187 352.435 107.352 352.435 107.556V133.323C352.435 133.373 352.423 133.423 352.399 133.468C352.376 133.514 352.342 133.556 352.298 133.59C352.255 133.625 352.204 133.651 352.148 133.669C352.093 133.687 352.033 133.694 351.973 133.692ZM337.663 132.921H351.521V107.934H337.762L337.665 132.921H337.663Z" fill="#231F20"/>
<path d="M326.795 131.879C326.795 131.879 324.024 120.834 328.181 119.102C332.337 117.371 346.626 115.343 344.416 118.051C342.205 120.759 334.461 122.434 334.461 122.434C334.461 122.434 336.052 126.298 334.303 129.039" fill="white"/>
<path d="M326.795 132.248C326.693 132.249 326.593 132.22 326.514 132.166C326.435 132.112 326.381 132.036 326.362 131.952C326.244 131.493 323.561 120.603 327.984 118.765C331.572 117.28 343.148 115.368 344.838 116.977C345.017 117.161 345.109 117.393 345.099 117.63C345.088 117.867 344.974 118.092 344.779 118.264C342.813 120.727 336.75 122.285 335.021 122.697C335.384 123.772 336.21 126.848 334.697 129.261C334.638 129.348 334.542 129.412 334.428 129.439C334.313 129.467 334.191 129.456 334.086 129.408C333.983 129.36 333.906 129.28 333.871 129.185C333.837 129.09 333.847 128.988 333.901 128.9C335.542 126.34 334.047 122.639 334.028 122.598C334.004 122.551 333.991 122.501 333.991 122.45C333.991 122.399 334.004 122.349 334.028 122.302C334.058 122.257 334.099 122.216 334.148 122.184C334.197 122.152 334.253 122.128 334.313 122.114C334.391 122.114 341.919 120.473 344.013 117.887C344.16 117.707 344.199 117.576 344.131 117.51C343.069 116.492 332.338 117.838 328.348 119.48C325.193 120.792 326.461 128.842 327.207 131.838C327.22 131.886 327.222 131.935 327.211 131.984C327.201 132.032 327.179 132.078 327.148 132.12C327.116 132.161 327.074 132.197 327.026 132.224C326.977 132.252 326.922 132.271 326.865 132.281L326.795 132.248Z" fill="#231F20"/>
<path d="M224.047 110.427L199.567 75.3391L172.05 100.851L182.27 119.249C182.27 119.249 166.546 150.326 166.546 211.24C166.546 211.24 250.258 210.936 271.327 210.936L243.81 175.198C243.81 175.198 250.69 158.639 254.238 154.503L274.728 163.817L298.689 136.565L224.047 110.428V110.427Z" fill="#75ECCA"/>
<path d="M223.694 143.876C237.206 150.441 240.4 123.755 241 117.978C241.274 116.388 241.161 114.77 240.666 113.218C239.889 111.249 238.072 109.723 236.253 108.294C234.082 106.653 231.575 104.93 228.617 104.824C227.237 104.842 225.881 105.129 224.657 105.663C223.434 106.198 222.377 106.964 221.571 107.9C219.976 109.785 218.829 111.908 218.191 114.153C215.006 123.435 215.124 133.233 221.266 141.669C221.78 142.473 222.51 143.167 223.398 143.695L223.694 143.876Z" fill="#231F20"/>
<path d="M227.733 145.271C226.225 145.233 224.756 144.859 223.478 144.188L223.172 144.032C222.224 143.474 221.446 142.738 220.902 141.882C215.272 134.144 214.19 124.534 217.777 114.08C218.429 111.79 219.6 109.626 221.226 107.704C222.071 106.718 223.183 105.912 224.47 105.353C225.758 104.794 227.186 104.497 228.637 104.487C231.664 104.594 234.228 106.267 236.499 108.056C238.347 109.476 240.214 111.044 241.03 113.103C241.537 114.709 241.658 116.382 241.383 118.027C240.47 126.635 237.845 141.545 230.573 144.688C229.696 145.071 228.722 145.271 227.733 145.27V145.271ZM228.342 105.209C227.073 105.262 225.836 105.554 224.721 106.062C223.606 106.571 222.643 107.283 221.904 108.147C220.35 109.996 219.232 112.077 218.613 114.277C215.084 124.534 216.136 133.972 221.64 141.504C222.11 142.26 222.782 142.915 223.605 143.417L223.89 143.556C226.229 144.696 228.292 144.852 230.189 144.032C235.241 141.849 239.034 132.346 240.548 117.945C240.81 116.402 240.703 114.832 240.233 113.324C239.486 111.429 237.707 109.944 235.938 108.582C233.738 106.891 231.33 105.299 228.578 105.209H228.343H228.342ZM264.016 93.8356C265.264 97.618 263.22 102.436 260.154 105.234C258.11 107.08 253.628 107.573 252.724 104.568C252.16 102.591 252.075 100.539 252.475 98.5332C252.875 96.5277 253.752 94.6095 255.053 92.8918C257.018 90.192 260.783 88.6491 263.201 92.1199C263.56 92.6598 263.834 93.2365 264.016 93.8356Z" fill="#231F20"/>
<path d="M256.085 107.08C255.708 107.082 255.332 107.046 254.965 106.973C254.306 106.833 253.706 106.541 253.235 106.131C252.764 105.72 252.441 105.208 252.301 104.651C251.724 102.63 251.633 100.534 252.035 98.4843C252.436 96.4343 253.322 94.4717 254.641 92.7109C256.017 90.8645 257.962 89.7487 259.781 89.7568C260.812 89.7568 262.297 90.1597 263.535 91.948C263.925 92.5121 264.229 93.1165 264.439 93.7451C265.795 97.8481 263.456 102.771 260.508 105.48C259.938 105.983 259.252 106.383 258.492 106.658C257.732 106.933 256.913 107.077 256.084 107.08H256.085ZM259.732 90.4785C258.237 90.4785 256.577 91.4725 255.377 93.0807C254.117 94.7607 253.27 96.6344 252.887 98.5917C252.503 100.549 252.592 102.551 253.146 104.479C253.35 105.355 254.142 106.053 255.181 106.267C256.023 106.396 256.889 106.347 257.701 106.123C258.514 105.899 259.246 105.509 259.83 104.987C262.601 102.477 264.861 97.7416 263.604 93.9341C263.417 93.3598 263.143 92.8082 262.787 92.2927C261.952 91.0946 260.94 90.4794 259.771 90.4705L259.732 90.4794V90.4785Z" fill="#231F20"/>
<path d="M242.937 110.764C240.97 117.059 239.006 131.395 226.475 123.894C225.192 123.052 224.071 122.051 223.153 120.924C216.981 114.056 218.74 109.722 221.934 102.181C223.311 98.8985 224.499 95.6157 225.865 92.3339C227.232 89.0512 229.482 85.9654 231.349 82.8555C231.281 82.963 237.491 83.6758 243.702 81.3207C249.914 78.9657 255.053 76.5211 255.053 76.5211C256.735 78.6209 258.552 80.213 259.447 82.7087C260.271 85.1282 260.509 87.6605 260.144 90.1588C259.358 96.2891 256.42 102.919 253.087 108.393C249.756 113.866 242.937 110.764 242.937 110.764Z" fill="white"/>
<path d="M232.804 126.413C230.838 126.413 228.647 125.675 226.209 124.214C224.889 123.348 223.736 122.319 222.789 121.161C216.431 114.08 218.347 109.558 221.512 102.075C222.17 100.499 222.8 98.8824 223.408 97.3225C224.067 95.6408 224.745 93.909 225.472 92.2103C226.569 89.831 227.867 87.5194 229.354 85.2929C229.904 84.4226 230.455 83.5531 230.975 82.6836C231.001 82.6395 231.038 82.6002 231.082 82.568C231.126 82.5358 231.178 82.5113 231.234 82.496C231.29 82.4806 231.349 82.4748 231.407 82.4787C231.466 82.4826 231.523 82.4963 231.575 82.5188C235.649 82.9189 239.777 82.3856 243.516 80.976C247.358 79.4993 251.131 77.901 254.827 76.1844C254.927 76.1395 255.044 76.1272 255.155 76.1498C255.266 76.1725 255.362 76.2285 255.427 76.3071C255.85 76.8327 256.273 77.3243 256.695 77.8087C258.088 79.2298 259.166 80.8473 259.878 82.5851C260.717 85.0565 260.96 87.6417 260.596 90.192C259.878 95.6811 257.363 102.205 253.491 108.549C253.086 109.303 252.499 109.978 251.767 110.533C251.034 111.088 250.173 111.511 249.236 111.774C247.224 112.201 245.099 112.042 243.211 111.323C242.997 112.034 242.794 112.748 242.602 113.464C241.304 118.166 239.536 124.617 234.847 126.093C234.194 126.3 233.502 126.408 232.804 126.413ZM231.624 83.2737C231.153 84.0948 230.641 84.8497 230.151 85.6377C228.683 87.8355 227.402 90.1167 226.317 92.4646C225.6 94.106 224.923 95.879 224.264 97.5526C223.605 99.2271 223.026 100.737 222.357 102.32C219.182 109.821 217.443 113.948 223.516 120.71C224.408 121.807 225.495 122.784 226.74 123.607C229.825 125.461 232.46 126.069 234.602 125.396C238.837 124.058 240.499 117.847 241.796 113.308C242.061 112.356 242.297 111.462 242.543 110.699C242.562 110.645 242.595 110.594 242.639 110.552C242.684 110.509 242.739 110.475 242.801 110.453C242.862 110.43 242.93 110.419 242.997 110.42C243.065 110.422 243.131 110.435 243.191 110.461C245.009 111.241 247.1 111.454 249.088 111.061C249.907 110.827 250.659 110.454 251.297 109.965C251.935 109.476 252.445 108.882 252.794 108.22C256.616 101.952 259.112 95.5172 259.81 90.1176C260.165 87.6692 259.931 85.1861 259.122 82.8143C258.424 81.1554 257.379 79.6133 256.036 78.26C255.683 77.858 255.319 77.4398 254.976 77.0207C251.366 78.6765 247.688 80.2257 243.949 81.6655C240.087 83.1154 235.831 83.6709 231.624 83.2737Z" fill="#231F20"/>
<path d="M240.871 116.853C240.871 116.853 234.788 115.696 232.027 111.471C229.266 107.244 230.937 104.003 230.937 104.003C230.937 104.003 236.243 109.132 242.955 110.789L240.872 116.853H240.871Z" fill="#231F20"/>
<path d="M240.871 117.215H240.774C240.518 117.165 234.465 115.976 231.634 111.659C228.804 107.343 230.445 104.012 230.514 103.871C230.543 103.815 230.589 103.765 230.648 103.728C230.706 103.691 230.775 103.667 230.848 103.658C230.92 103.649 230.993 103.655 231.061 103.675C231.13 103.696 231.191 103.729 231.241 103.773C231.241 103.823 236.558 108.844 243.034 110.453C243.089 110.467 243.14 110.489 243.185 110.519C243.229 110.548 243.267 110.585 243.294 110.627C243.322 110.669 243.339 110.715 243.345 110.763C243.351 110.81 243.346 110.858 243.33 110.904L241.294 116.952C241.268 117.028 241.213 117.095 241.137 117.143C241.06 117.19 240.968 117.215 240.872 117.214L240.871 117.215ZM231.103 104.716C230.532 106.962 230.992 109.306 232.391 111.282C234.641 114.711 239.202 116.057 240.567 116.394L242.405 111.018C236.97 109.566 232.568 106.005 231.104 104.716H231.103ZM244.597 100.425C243.359 100.345 242.16 100.031 241.089 99.5056C241.039 99.4819 240.996 99.4503 240.961 99.4125C240.926 99.3748 240.9 99.3316 240.885 99.2856C240.87 99.2395 240.866 99.1914 240.873 99.144C240.88 99.0967 240.899 99.051 240.927 99.0095C240.955 98.9681 240.993 98.9317 241.038 98.9025C241.084 98.8732 241.135 98.8517 241.19 98.8392C241.245 98.8266 241.303 98.8233 241.36 98.8293C241.416 98.8353 241.471 98.8506 241.52 98.8743C242.278 99.2352 244.469 100.056 245.451 99.5217C246.091 99.1779 245.393 95.8056 243.919 92.1369C243.899 92.0913 243.89 92.0429 243.893 91.9944C243.896 91.946 243.911 91.8986 243.936 91.8549C243.962 91.8113 243.997 91.7723 244.041 91.7403C244.084 91.7083 244.135 91.6839 244.19 91.6685C244.245 91.6532 244.303 91.6472 244.361 91.6509C244.419 91.6546 244.475 91.668 244.527 91.6902C244.578 91.7124 244.624 91.743 244.661 91.7802C244.699 91.8174 244.726 91.8604 244.743 91.9068C245.629 94.098 247.506 99.2925 245.914 100.113C245.519 100.319 245.063 100.427 244.597 100.425Z" fill="#231F20"/>
<path d="M242.799 104.873C241.78 104.886 240.77 104.701 239.851 104.331C237.394 103.313 235.92 100.926 235.408 97.2329C235.396 97.1373 235.43 97.0417 235.502 96.9665C235.573 96.8913 235.677 96.8423 235.791 96.83C235.848 96.8242 235.906 96.828 235.961 96.8411C236.016 96.8541 236.067 96.8762 236.112 96.906C236.157 96.9359 236.194 96.9728 236.222 97.0148C236.25 97.0568 236.267 97.1029 236.273 97.1505C236.735 100.58 238.062 102.78 240.204 103.715C243.476 105.069 247.654 103.018 247.692 103.001C247.741 102.976 247.796 102.959 247.853 102.952C247.909 102.944 247.967 102.946 248.023 102.958C248.079 102.969 248.132 102.99 248.178 103.019C248.224 103.048 248.263 103.084 248.292 103.125C248.351 103.208 248.368 103.307 248.34 103.4C248.313 103.494 248.242 103.575 248.144 103.626C246.507 104.391 244.674 104.818 242.799 104.873ZM243.26 88.4933C243.15 88.4933 243.045 88.4585 242.965 88.396C242.885 88.3335 242.836 88.248 242.828 88.1566C242.759 87.3364 242.475 86.8358 241.963 86.6218C240.981 86.1956 239.143 86.9665 238.533 87.3032C238.437 87.3538 238.321 87.3709 238.21 87.3509C238.098 87.3309 238.001 87.2754 237.938 87.1962C237.875 87.117 237.852 87.0203 237.873 86.9269C237.894 86.8335 237.958 86.7507 238.051 86.6961C238.159 86.6388 240.675 85.2759 242.346 85.9735C242.782 86.1932 243.137 86.508 243.374 86.884C243.611 87.26 243.722 87.6829 243.693 88.1073C243.697 88.1548 243.689 88.2024 243.671 88.2474C243.653 88.2924 243.625 88.334 243.587 88.3698C243.55 88.4056 243.504 88.4348 243.453 88.4559C243.402 88.4769 243.347 88.4893 243.29 88.4924H243.26V88.4933ZM254.16 92.5631C254.052 92.5635 253.947 92.5301 253.867 92.4695C253.787 92.4088 253.737 92.3253 253.727 92.2354C253.727 92.2354 253.53 90.4302 252.302 89.7729C251.241 89.1908 250.002 90.5197 249.992 90.5367C249.957 90.5746 249.914 90.6064 249.864 90.6302C249.815 90.6541 249.76 90.6695 249.704 90.6755C249.647 90.6816 249.589 90.6782 249.534 90.6656C249.479 90.653 249.428 90.6314 249.383 90.6021C249.336 90.5737 249.298 90.538 249.268 90.497C249.239 90.456 249.22 90.4105 249.211 90.3631C249.203 90.3158 249.206 90.2676 249.221 90.2213C249.235 90.175 249.26 90.1316 249.295 90.0935C249.894 89.4371 251.388 88.4028 252.783 89.1658C254.365 90.0362 254.583 92.1038 254.591 92.1861C254.597 92.2336 254.591 92.2816 254.574 92.3272C254.557 92.3727 254.53 92.4151 254.493 92.4517C254.457 92.4884 254.412 92.5186 254.361 92.5406C254.31 92.5627 254.255 92.5761 254.198 92.5801L254.16 92.5631ZM219.595 90.5779C219.441 91.8855 219.713 93.2036 220.382 94.3925C221.777 96.5515 225.217 97.4299 228.028 96.7324C235.369 94.9182 238.897 83.2576 233.345 78.6782C228.185 74.4275 222.327 81.1407 221.119 85.104C220.559 86.9665 219.674 88.6903 219.596 90.5779H219.595Z" fill="#231F20"/>
<path d="M226.062 97.3314C224.85 97.3581 223.65 97.1163 222.585 96.6306C221.52 96.1448 220.628 95.4323 219.999 94.5654C219.283 93.3208 218.994 91.9346 219.163 90.5609C219.298 89.1873 219.628 87.8324 220.145 86.5233C220.323 86.0227 220.499 85.5222 220.656 85.0216C221.512 82.2645 224.686 77.9896 228.431 77.1273C229.353 76.9232 230.325 76.9363 231.239 77.1651C232.153 77.3939 232.973 77.8296 233.609 78.4239C236.292 80.6321 237.168 84.6285 235.899 88.8542C234.632 93.0807 231.653 96.2399 228.116 97.0601C227.449 97.2283 226.758 97.3196 226.062 97.3314ZM220.028 90.594C219.871 91.8394 220.126 93.0968 220.765 94.2296C221.506 95.196 222.608 95.9311 223.899 96.3212C225.191 96.7113 226.6 96.7347 227.909 96.3876C231.163 95.5665 233.915 92.6294 235.094 88.6822C236.272 84.7351 235.497 80.9679 233.039 78.9415C232.512 78.4347 231.827 78.061 231.059 77.8623C230.292 77.6636 229.474 77.6478 228.696 77.8168C225.316 78.6379 222.318 82.6836 221.531 85.2025C221.37 85.7135 221.2 86.2225 221.021 86.7292C220.511 87.9804 220.181 89.2777 220.037 90.594H220.028Z" fill="#231F20"/>
<path d="M260.408 97.7908C260.234 97.7912 260.062 97.7527 259.912 97.6794C259.761 97.6061 259.636 97.5005 259.55 97.3735C259.464 97.2465 259.42 97.1027 259.423 96.9568C259.425 96.811 259.474 96.6683 259.564 96.5434C259.672 96.3957 270.571 81.4281 272.439 72.0975C273.116 68.7163 271.318 65.2867 267.377 62.4221C261.992 58.5162 253.953 56.7682 248.262 58.2699C238.14 60.9455 232.755 80.4261 232.696 80.5909C232.631 80.7968 232.473 80.9736 232.255 81.0841C232.038 81.1946 231.777 81.2302 231.529 81.1835C231.28 81.1367 231.063 81.0112 230.923 80.8334C230.783 80.6556 230.731 80.4393 230.778 80.23C231.005 79.4089 236.479 59.657 247.673 56.7029C254.071 55.0203 262.7 56.8587 268.665 61.1828C273.146 64.4656 275.18 68.4047 274.384 72.3679C272.419 82.0183 261.697 96.7727 261.245 97.3968C261.158 97.5166 261.035 97.6158 260.889 97.6847C260.742 97.7537 260.577 97.7902 260.41 97.7908H260.408Z" fill="#231F20"/>
<path d="M313.694 214.014C310.171 214.004 306.672 213.531 303.326 212.61C299.338 211.43 295.649 209.637 292.448 207.325C286.993 203.641 282.187 199.242 277.539 195.017C274.591 192.317 271.544 189.527 268.359 186.95C258.385 178.875 248.48 174.575 238.877 174.181C225.964 173.639 214.515 179.803 204.078 186.539C203.095 187.196 202.034 187.877 200.992 188.567C192.55 194.154 182.978 200.482 171.185 198.997C163.146 197.987 156.905 193.359 153.092 189.657C143.707 180.542 139.333 167.501 141.506 154.855C143.805 141.234 152.896 131.633 168.532 126.315C181.474 121.917 193.69 115.762 205.513 109.812L205.61 109.772C212.933 106.079 220.706 101.352 222.8 94.2627C222.831 94.1538 222.913 94.0598 223.027 94.0012C223.141 93.9427 223.278 93.9245 223.409 93.9506C223.539 93.9768 223.651 94.0451 223.721 94.1405C223.791 94.236 223.813 94.3508 223.782 94.4597C221.6 101.845 213.64 106.694 206.141 110.469L206.053 110.518C194.201 116.484 181.946 122.655 168.935 127.078C153.642 132.272 144.758 141.652 142.508 154.979C140.404 167.386 144.65 180.147 153.83 189.083C157.535 192.686 163.578 197.183 171.322 198.152C182.693 199.587 191.685 193.638 200.373 187.893L203.468 185.859C214.063 179.023 225.688 172.77 238.917 173.328C248.744 173.738 258.866 178.112 269.018 186.326C272.222 188.927 275.279 191.726 278.237 194.434C282.856 198.668 287.632 203.043 293.037 206.685C296.143 208.932 299.722 210.677 303.591 211.831C316.869 215.409 330.126 211.888 343.089 201.36C362.322 185.703 373.161 161.971 372.817 136.171C372.66 124.124 369.968 114.711 364.582 107.384C362.41 104.421 359.668 101.122 355.206 99.4725C352.927 98.6522 347.58 98.3406 345.517 100.762C344.731 101.689 344.651 102.78 344.534 104.166C344.534 104.766 344.435 105.438 344.327 106.169C344.304 106.273 344.234 106.366 344.131 106.429C344.029 106.491 343.901 106.518 343.775 106.505C343.649 106.491 343.535 106.438 343.454 106.355C343.374 106.273 343.335 106.168 343.345 106.062C343.462 105.356 343.502 104.725 343.551 104.117C343.658 102.658 343.757 101.401 344.71 100.285C347.109 97.4702 352.986 97.7657 355.599 98.7265C360.356 100.466 363.157 103.888 365.427 106.932C370.911 114.392 373.642 123.943 373.81 136.146C374.153 162.143 363.216 186.121 343.787 201.926C333.939 209.976 323.846 214.006 313.694 214.014ZM218.691 33.1515C218.621 33.1509 218.551 33.1382 218.487 33.1142C218.423 33.0901 218.365 33.0553 218.318 33.0118C218.228 32.9338 218.177 32.8294 218.177 32.7208C218.177 32.6122 218.228 32.5078 218.318 32.4298C220.48 30.8618 222.623 30.1732 224.696 30.3693C226.455 30.5699 228.054 31.3316 229.158 32.4951C229.313 32.6796 229.265 32.9339 229.051 33.0691C228.998 33.1011 228.939 33.1241 228.876 33.1369C228.813 33.1497 228.748 33.152 228.684 33.1437C228.62 33.1353 228.559 33.1166 228.503 33.0884C228.448 33.0603 228.4 33.0233 228.362 32.9796C227.422 31.9998 226.074 31.3521 224.588 31.1654C222.8 30.9926 220.912 31.6248 218.966 33.0369C218.892 33.0992 218.795 33.1395 218.691 33.1515Z" fill="#231F20"/>
<path d="M247.968 166.008C247.9 166.02 247.83 166.02 247.762 166.008C247.656 165.961 247.577 165.882 247.54 165.787C247.503 165.692 247.512 165.589 247.565 165.499L259.967 144.738C260.024 144.655 260.117 144.594 260.227 144.567C260.336 144.539 260.454 144.548 260.556 144.591C260.658 144.634 260.736 144.708 260.774 144.798C260.813 144.888 260.809 144.987 260.763 145.074L248.37 165.802C248.333 165.865 248.276 165.918 248.205 165.954C248.133 165.99 248.051 166.009 247.968 166.008ZM224.864 170.054C210.662 170.054 193.975 166.212 193.052 165.999C192.987 165.993 192.926 165.974 192.871 165.946C192.815 165.918 192.768 165.88 192.732 165.835C192.696 165.79 192.672 165.739 192.662 165.685C192.651 165.632 192.655 165.577 192.672 165.525C192.689 165.473 192.719 165.424 192.761 165.383C192.802 165.341 192.854 165.307 192.912 165.284C192.97 165.26 193.034 165.248 193.099 165.247C193.164 165.246 193.228 165.256 193.287 165.278C193.592 165.343 223.389 172.212 237.168 167.821C237.401 167.749 237.66 167.848 237.747 168.043C237.769 168.088 237.78 168.136 237.779 168.185C237.778 168.234 237.765 168.282 237.741 168.327C237.717 168.371 237.683 168.411 237.64 168.444C237.597 168.477 237.546 168.503 237.491 168.519C233.422 169.647 229.147 170.166 224.863 170.054H224.864ZM343.187 102.361H345.329V105.02H343.187V102.361Z" fill="#231F20"/>
<path d="M345.329 105.382H343.187C343.071 105.382 342.96 105.344 342.878 105.276C342.795 105.208 342.747 105.116 342.745 105.02V102.361C342.745 102.313 342.756 102.265 342.779 102.221C342.801 102.177 342.834 102.136 342.875 102.103C342.916 102.069 342.965 102.043 343.019 102.025C343.072 102.008 343.13 101.999 343.187 102H345.329C345.568 102 345.762 102.162 345.762 102.361V105.021C345.762 105.068 345.751 105.115 345.729 105.159C345.707 105.203 345.675 105.243 345.635 105.276C345.595 105.31 345.547 105.336 345.495 105.354C345.442 105.372 345.386 105.382 345.329 105.382ZM343.62 104.651H344.898V102.723H343.62V104.651Z" fill="#231F20"/>
<path d="M228.174 94.6146L227.468 94.0406C229.65 92.2285 231.074 89.8761 231.529 87.3331C231.984 84.7901 231.445 82.1922 229.993 79.9256L230.838 79.5074C232.397 81.9302 232.979 84.7084 232.499 87.4298C232.019 90.1513 230.503 92.6708 228.174 94.6146ZM260.606 105.382L259.692 105.077C262.562 98.8985 261.834 94.3361 261.834 94.2949L262.817 94.1803C262.837 94.3523 263.574 98.98 260.606 105.382ZM181.271 71.4394L188.39 65.3619L189.092 65.935L181.973 72.0133L181.271 71.4394ZM309.987 151.243L310.419 150.506L317.983 153.598L317.551 154.336L309.987 151.243Z" fill="white"/>
<path d="M57.6225 94.0962C57.209 94.0147 56.7667 93.9574 56.3639 93.8419C55.7312 93.7111 55.1502 93.4448 54.678 93.0692C54.2058 92.6936 53.8588 92.2217 53.6711 91.6999C53.5362 91.246 53.5189 90.7732 53.6205 90.3133C53.7221 89.8534 53.9403 89.4169 54.2603 89.0333C54.7968 88.3539 55.4939 87.7734 56.3086 87.3275C57.1233 86.8815 58.0384 86.5795 58.9978 86.44C60.266 86.2018 60.8358 86.26 62.8506 86.6702V66.9084L86.1226 63.0194V87.1859C86.1518 87.8063 86.0121 88.4241 85.7141 88.9927C85.4161 89.5614 84.9676 90.066 84.4024 90.4687C83.4788 91.2164 82.3342 91.7456 81.0857 92.0022C79.8373 92.2588 78.5297 92.2336 77.2966 91.9292C76.6586 91.8109 76.071 91.5499 75.5967 91.174C75.1224 90.7982 74.7792 90.3216 74.6039 89.7953C74.4612 89.3437 74.4392 88.8714 74.5396 88.4119C74.6399 87.9524 74.8601 87.517 75.1844 87.1367C75.7204 86.4537 76.4196 85.8707 77.238 85.4245C78.0564 84.9782 78.9764 84.6782 79.9401 84.5435C81.2112 84.3113 82.5354 84.3912 83.7533 84.7736V71.1851L82.1027 71.4555C76.5777 72.3838 71.0511 73.3058 65.523 74.2215C65.2188 74.2708 65.1695 74.3693 65.1695 74.5985V89.0091C65.198 89.7455 65.005 90.4762 64.6083 91.1342C64.2116 91.7921 63.6238 92.3564 62.8988 92.7754C61.814 93.4602 60.5338 93.8958 59.1852 94.0389C59.1149 94.0542 59.0459 94.0734 58.9785 94.0962H57.6225ZM425.879 150.732V150.264C425.818 149.833 425.625 149.424 425.319 149.074C424.82 148.468 424.174 147.956 423.423 147.573C422.671 147.17 421.834 146.891 420.956 146.752C420.398 146.662 419.824 146.662 419.266 146.752H419.118C419.113 146.697 419.113 146.642 419.118 146.588C419.217 146.267 419.314 145.956 419.422 145.652L421.388 139.908C422.105 137.823 422.834 135.739 423.55 133.655V133.532L422.863 133.483C420.98 133.399 419.1 133.679 417.368 134.303C415.751 134.861 414.4 135.851 413.526 137.117C413.28 137.479 413.094 137.864 412.888 138.25C412.749 138.496 412.641 138.759 412.514 139.013C412.508 139.049 412.508 139.085 412.514 139.121L412.76 138.997C413.54 138.569 414.358 138.191 415.206 137.864C416.516 137.373 417.951 137.159 419.384 137.241C420.001 137.291 420.608 137.405 421.192 137.578C421.187 137.618 421.187 137.66 421.192 137.7C420 141.158 418.817 144.613 417.644 148.064C417.629 148.127 417.629 148.191 417.644 148.253C417.728 148.864 418.037 149.437 418.528 149.895C419.15 150.529 419.936 151.037 420.828 151.38L421.595 151.659L422.302 151.831H422.499C423.083 151.93 423.684 151.93 424.268 151.831C424.76 151.773 425.21 151.569 425.535 151.257C425.642 151.132 425.74 151.004 425.831 150.872L425.879 150.732ZM76.1934 158.805C76.1934 158.608 76.1934 158.402 76.3027 158.205C76.474 157.664 76.8136 157.169 77.2849 156.77C78.0782 156.079 79.0355 155.534 80.0955 155.17C81.1568 154.78 82.298 154.566 83.4566 154.538C84.1958 154.519 84.9327 154.616 85.6288 154.825L85.8152 154.882C85.8205 154.812 85.8205 154.74 85.8152 154.669C85.8152 154.251 85.7166 153.849 85.6577 153.422C85.285 150.834 84.908 148.255 84.5277 145.683C84.1153 142.877 83.6922 140.079 83.2799 137.28V137.116C83.5841 137.116 83.8893 137.116 84.1742 137.174C86.6175 137.377 88.9718 138.049 91.054 139.135C92.9886 140.129 94.4771 141.629 95.2892 143.403C95.5034 143.913 95.6844 144.434 95.8301 144.961C95.9479 145.306 96.0261 145.659 96.1246 146.012C96.1397 146.058 96.1397 146.106 96.1246 146.152L95.8397 145.946C94.9398 145.263 93.9803 144.638 92.9691 144.075C91.413 143.221 89.6263 142.704 87.771 142.573C86.9658 142.529 86.1572 142.568 85.3632 142.688C85.3685 142.74 85.3685 142.793 85.3632 142.845C86.0187 147.483 86.6903 152.133 87.3779 156.795C87.3974 156.873 87.3974 156.954 87.3779 157.032C87.1269 157.816 86.5873 158.514 85.8355 159.026C84.8826 159.738 83.7453 160.255 82.513 160.536C82.1702 160.627 81.8157 160.693 81.4718 160.766L80.4886 160.865H80.3332C79.5594 160.906 78.7835 160.817 78.0518 160.602C77.4393 160.449 76.9153 160.113 76.579 159.659C76.4646 159.482 76.3658 159.298 76.2834 159.109L76.1955 158.804L76.1934 158.805ZM311.513 86.0227C311.641 85.8096 311.749 85.5884 311.896 85.3914C312.354 84.8337 312.978 84.3843 313.705 84.0868C314.928 83.5676 316.266 83.2657 317.636 83.2003C319.015 83.1089 320.403 83.2396 321.724 83.5853C322.571 83.8037 323.359 84.158 324.043 84.6285L324.23 84.7512C324.277 84.6749 324.317 84.5951 324.347 84.513C324.495 84.0295 324.632 83.545 324.761 83.0525L327.119 73.944C327.964 70.6612 328.806 67.3624 329.645 64.0474L329.694 63.8504C330.037 63.9731 330.363 64.0796 330.677 64.2032C333.329 65.2343 335.663 66.7616 337.497 68.667C339.223 70.423 340.204 72.6074 340.288 74.8788C340.288 75.5235 340.249 76.1674 340.17 76.8076C340.17 77.2428 340.063 77.6279 340.003 78.0962C339.996 78.1485 339.976 78.199 339.944 78.2439L339.708 77.9234C339.016 76.8598 338.227 75.842 337.35 74.8788C335.995 73.3992 334.218 72.2281 332.18 71.4734C331.294 71.1594 330.362 70.9415 329.409 70.8251H329.34C329.329 70.889 329.313 70.9522 329.29 71.014L325.046 87.3776C325.022 87.4734 324.979 87.565 324.917 87.648C324.266 88.4491 323.332 89.0602 322.245 89.3959C320.832 89.8813 319.306 90.0917 317.783 90.0111C317.351 90.0111 316.928 89.9618 316.495 89.9296L315.365 89.7326L315.179 89.6663C314.287 89.4599 313.455 89.1054 312.731 88.624C312.116 88.2441 311.681 87.6949 311.503 87.0731C311.465 86.8364 311.442 86.5982 311.434 86.3594L311.513 86.0227Z" fill="#CD7DF3"/>
<path d="M40.8007 45.4891C35.7397 45.4891 35.7301 52.0537 40.8007 52.0537C45.8724 52.0537 45.8724 45.49 40.8007 45.49V45.4891ZM423.187 52.6527C418.126 52.6527 418.117 59.2173 423.187 59.2173C428.259 59.2173 428.259 52.6536 423.187 52.6536V52.6527ZM358.514 37.5348C358.42 37.2637 358.248 37.0159 358.013 36.813L357.611 36.5587C357.313 36.411 356.974 36.3316 356.627 36.3286H356.077C355.813 36.3188 355.552 36.3699 355.321 36.4763C355.074 36.539 354.855 36.6554 354.682 36.813C354.498 36.9574 354.359 37.1377 354.279 37.3378C354.155 37.5321 354.098 37.7506 354.111 37.97L354.181 38.4132C354.273 38.6854 354.446 38.9326 354.682 39.1349L355.085 39.3902C355.384 39.5343 355.722 39.6104 356.067 39.6113H356.618C356.88 39.6239 357.143 39.5755 357.375 39.4716C357.617 39.4045 357.836 39.289 358.013 39.1349C358.36 38.8143 358.561 38.4026 358.583 37.9709C358.564 37.8303 358.534 37.6825 358.515 37.5348H358.514ZM123.78 29.8625C120.615 29.8625 120.605 33.9655 123.78 33.9655C126.953 33.9655 126.944 29.8625 123.78 29.8625ZM406.91 69.7013C403.745 69.7013 403.745 73.8052 406.91 73.8052C410.074 73.8052 410.074 69.7022 406.91 69.7022V69.7013Z" fill="#698DFF"/>
</g>
</g>
<defs>
<clipPath id="clip0_1_53">
<rect width="482" height="197" fill="white"/>
</clipPath>
</defs>
</svg>
